<svg width="232" height="103" viewBox="0 0 232 103" fill="none" xmlns="http://www.w3.org/2000/svg">
<g clip-path="url(#clip0_62_150)">
<path fill-rule="evenodd" clip-rule="evenodd" d="M230.578 102.362L230.716 88.4073C223.723 88.044 215.979 88.3601 208.935 88.3392L121.576 88.2711C115.081 88.2711 106.215 88.7723 100.305 87.5393C83.039 83.9379 70.1811 69.5553 69.9156 52.249C69.8091 45.324 71.0561 38.8898 73.8383 33.9454C75.1692 31.5806 76.3952 29.3032 78.1225 27.3575C79.7905 25.48 81.5719 23.5903 83.659 21.9992C99.0075 10.2975 120.607 11.2197 132.661 22.6018C139.205 28.781 142.737 33.928 145.014 42.9121C146.015 46.8592 145.594 49.114 146.078 53.0367L159.869 53.1118C161.089 47.0706 157.78 35.2379 155.666 30.6759C149.634 17.6521 141.008 9.26356 128.103 3.81266C115.116 -1.67318 95.9144 -1.41294 83.4005 5.73383C80.2917 7.51005 77.6946 8.90727 75.1482 10.9385C49.1459 31.6715 48.739 71.6092 77.3139 92.6671C81.6889 95.8911 89.3719 99.8627 96.0366 101.167C104.439 102.813 112.81 102.421 121.897 102.409L203.497 102.42C212.055 102.423 222.218 102.914 230.58 102.364L230.578 102.362Z" fill="#003EDE"/>
<path fill-rule="evenodd" clip-rule="evenodd" d="M77.8239 51.6097C77.8134 67.0892 92.0231 80.3733 107.817 80.3994H203.816C211.424 80.3942 224.242 80.6597 231.232 80.3296L231.289 66.7469C225.819 66.3172 173.755 66.6159 169.895 66.6124L115.496 66.2701C108.668 66.2963 102.577 66.7451 97.6871 62.3788C87.4263 53.2131 92.6012 34.651 109.104 35.2029C115.893 35.43 120.78 40.1229 122.673 45.7344C123.712 48.8171 123.12 50.0012 123.59 53.11L137.819 53.138C141.832 28.8752 108.385 7.6445 86.3434 29.8201C81.2349 34.9601 77.8291 42.1436 77.8221 51.6115L77.8239 51.6097Z" fill="#003EDE"/>
<path fill-rule="evenodd" clip-rule="evenodd" d="M13.8505 13.0308C18.6936 13.7906 28.8601 12.292 32.7566 13.3417C33.1496 20.3226 32.8736 28.2151 32.8823 35.2885C32.8911 42.6344 33.2648 49.8371 33.2683 57.3681C33.2736 72.2956 33.2963 87.2214 33.3591 102.147C35.2192 102.631 44.102 102.416 46.486 102.296L46.5 0.0873365L13.8767 0.0733643L13.8505 13.0291V13.0308Z" fill="#003EDE"/>
<path fill-rule="evenodd" clip-rule="evenodd" d="M0.000518799 33.6572C3.37131 34.1043 11.8402 33.0965 14.0426 33.982C14.219 34.2929 14.1299 33.8161 14.2888 34.7051C14.8198 37.6549 13.7195 96.7888 14.4722 102.386L26.9896 102.4L27.0804 21.1258L0.178664 21.0752L0.000518799 33.6554L0.000518799 33.6572Z" fill="#003EDE"/>
</g>
<defs>
<clipPath id="clip0_62_150">
<rect width="231.29" height="102.624" fill="white"/>
</clipPath>
</defs>
</svg>
