<svg width="205" height="69" viewBox="0 0 205 69" fill="none" xmlns="http://www.w3.org/2000/svg">
<path fill-rule="evenodd" clip-rule="evenodd" d="M0 68.8344H66.7413V0.0836182H0V68.8344Z" fill="black"/>
<path fill-rule="evenodd" clip-rule="evenodd" d="M13.2208 35.3117L13.226 38.2226L13.2273 43.3005L13.2324 45.9688V48.8985L13.2428 57.5746L23.3829 57.5598C23.7037 57.1164 23.5692 55.1138 23.5692 54.3834C23.5692 50.4402 23.3984 32.9776 23.5692 30.9279H31.1232C31.1076 32.6623 30.9084 43.1253 31.2538 43.8328C31.2215 46.5469 32.0495 49.3931 33.1414 51.2906C34.2915 53.2878 35.8452 54.7338 37.9449 55.8105C41.9024 57.8401 48.988 58.1783 53.56 56.6878L53.5924 46.303C51.6841 45.9742 49.1109 46.586 46.8728 46.1965C44.984 45.8677 43.1974 44.7195 43.35 42.5391C43.4264 38.7967 43.2957 34.6891 43.2957 30.8645C44.081 30.8578 52.0606 31.1246 52.5587 30.6705L52.6001 20.291L43.2336 20.2546L43.2297 11.5948C42.3202 11.3724 34.721 11.522 32.6096 11.5085C32.0158 11.5045 31.6394 11.4034 31.2034 11.6797L31.2021 20.2533C29.3818 20.4972 26.3222 20.2978 24.3713 20.2964C23.128 20.2951 22.9081 20.9217 22.2004 21.6279C21.5639 22.2626 21.0439 22.7909 20.4164 23.4202C19.3142 24.528 18.0502 25.9174 16.9842 26.9874C16.3697 27.6033 13.693 30.0344 13.5377 30.5761C13.0112 30.8538 13.2376 32.1717 13.2337 32.793C13.2273 33.6326 13.2014 34.4748 13.2234 35.3131L13.2208 35.3117Z" fill="url(#paint0_linear_51_62)"/>
<path fill-rule="evenodd" clip-rule="evenodd" d="M13.2466 21.1266L23.4126 11.5719L13.2867 11.5436L13.2466 21.1266Z" fill="#2B00EC"/>
<path fill-rule="evenodd" clip-rule="evenodd" d="M107.303 48.59L108.627 48.5618L108.624 35.293L115.865 35.2957L123.565 45.9244C125.467 48.5564 125.056 48.6938 126.996 48.586C126.571 47.675 125.321 46.1657 124.675 45.2452C123.631 43.7561 117.958 36.0476 117.577 35.2445C124.855 34.0262 125.052 26.9161 123.004 23.6467C121.859 21.818 119.838 20.4448 116.788 20.3316C113.806 20.2211 110.351 20.2507 107.36 20.3343L107.305 48.5914L107.303 48.59ZM108.624 33.9885C110.173 34.1879 116.948 34.1273 118.331 33.789C124.243 32.339 124.245 23.3947 118.472 21.8517C117.183 21.508 109.944 21.3423 108.631 21.6307L108.624 33.9885Z" fill="white"/>
<path fill-rule="evenodd" clip-rule="evenodd" d="M130.518 48.5819L131.879 48.6048L134.771 41.1268L149.705 41.12C150.08 41.992 152.446 48.4646 152.904 48.6088L154.021 48.6061C153.741 47.489 144.657 25.1452 143.259 21.5969C143.056 21.0808 142.864 19.8922 142.235 19.9218C141.781 19.9434 141.84 20.0849 141.648 20.6212L131.972 44.8395C131.527 45.9729 130.796 47.4863 130.519 48.5805L130.518 48.5819ZM135.284 39.8304L149.151 39.86C148.971 38.9854 146.264 32.3887 145.724 31.0923C145.102 29.5924 142.853 23.2585 142.234 22.5039L135.282 39.8304H135.284Z" fill="white"/>
<path fill-rule="evenodd" clip-rule="evenodd" d="M160.155 48.6051L161.32 48.597L161.37 23.5162C162.056 23.9596 173.864 40.65 175.439 42.8534L179.531 48.5943C179.879 49.0646 179.747 49.0511 180.481 49.0188L180.5 48.3868C180.561 44.3466 180.644 23.2467 180.46 20.3385L179.205 20.3399L179.174 45.6309C178.557 45.2562 177.2 43.0596 176.755 42.4356L165.196 26.2155C164.426 25.1226 163.648 24.0715 162.85 22.9408C162.322 22.1929 161.074 19.9881 160.22 19.8951C159.935 20.4275 160.054 22.5419 160.054 23.3006C160.054 27.5214 159.885 47.7049 160.155 48.6051Z" fill="white"/>
<path fill-rule="evenodd" clip-rule="evenodd" d="M187.997 42.3638C187.537 42.5686 187.453 42.737 186.999 42.9419C187.362 44.582 190.322 47.3257 192.163 48.1424C197.25 50.4037 204.548 48.3971 204.64 41.8773C204.69 38.298 202.744 36.6592 200.658 35.3197C196.234 32.4802 189.149 31.3819 190.402 25.2138C190.941 22.5657 193.663 21.1871 196.652 21.2302C200.298 21.2801 201.73 23.1223 203.359 24.9038L204.297 24.2866C202.963 20.4701 194.756 17.6698 190.481 22.2719C188.721 24.1667 188.217 27.5398 189.818 30.1017C192.113 33.7766 199.07 34.8386 202.136 38.2265C204.008 40.2938 203.339 44.3219 201.596 45.9161C197.643 49.5264 190.615 47.4888 187.999 42.3651L187.997 42.3638Z" fill="white"/>
<path fill-rule="evenodd" clip-rule="evenodd" d="M80.3463 21.5546L90.5369 21.5573C90.6999 25.4479 90.3079 47.417 90.652 48.6016H91.8241L91.8875 21.5546L102.088 21.5506L102.087 20.3593L80.3968 20.3215L80.3489 21.556L80.3463 21.5546Z" fill="white"/>
<defs>
<linearGradient id="paint0_linear_51_62" x1="17.7953" y1="49.3594" x2="50.1348" y2="21.0363" gradientUnits="userSpaceOnUse">
<stop stop-color="#AFAFAF"/>
<stop offset="0.301961" stop-color="#E5E6E6"/>
<stop offset="0.54902" stop-color="#A1A1A1"/>
<stop offset="0.74902" stop-color="#F2F3F3"/>
<stop offset="1" stop-color="#B4B4B4"/>
</linearGradient>
</defs>
</svg>
