<svg width="94" height="139" viewBox="0 0 94 139" fill="none" xmlns="http://www.w3.org/2000/svg">
<path fill-rule="evenodd" clip-rule="evenodd" d="M59.8814 87.9439C59.9843 85.9471 59.6305 77.6449 60.0744 76.5259L94 76.479L93.9871 48.3762L60.068 48.3494C59.9071 46.1716 60.0294 43.4578 60.0358 41.26C60.0422 37.0118 60.2095 33.6413 56.6973 38.2112L51.7441 43.9336C51.1588 44.5501 50.7921 45.0727 50.1231 45.8098L37.1099 60.9802C35.4182 62.8363 36.4538 63.1915 39.921 67.1449L52.1108 81.3973C53.4166 83.0256 56.3049 86.0744 57.7651 87.9975C58.7171 89.2505 59.7528 88.8954 59.8814 87.9439Z" fill="#003EDE"/>
<path fill-rule="evenodd" clip-rule="evenodd" d="M13.1775 6.21011C31.0538 6.18331 48.9429 6.0895 66.8191 6.0895C71.1676 6.53845 73.8693 13.9159 73.8693 16.5158C73.9658 23.967 73.7406 32.9058 73.7599 35.3046C73.7599 36.5711 75.0593 37.3483 76.3137 37.355C77.478 37.355 78.3271 36.8592 78.4236 35.3113L78.3914 14.9881C78.668 9.8754 75.5546 3.39581 69.9197 1.15107C65.1145 -0.765334 54.7644 0.286678 48.9879 0.300079C41.7448 0.313481 34.4952 0.30678 27.2521 0.300079C20.7166 0.293379 12.6758 -0.691627 7.59403 2.53812C3.29061 5.27871 0.100029 9.92231 0.138625 17.4673C0.267278 47.5937 0.0485686 77.881 0.132193 108.041C0.15149 114.092 -0.652587 124.531 1.48947 129.329C6.44259 140.399 15.7506 138.79 25.1229 138.77H57.7298C61.3643 138.757 64.6063 139.072 67.9448 137.986C70.5115 137.156 73.3675 135.118 74.5833 133.584C78.9575 128.049 78.6101 123.741 78.5329 115.144C78.4622 107.82 78.8674 99.8191 78.5072 92.6024C78.4815 91.5102 77.8125 90.4113 76.0821 90.3845C74.3517 90.3577 73.5862 91.4968 73.6892 92.522L73.6184 107.478L5.13034 107.558L5.08531 17.4539C4.71865 11.1686 9.69106 6.29722 13.184 6.21011H13.1775ZM6.0309 112.986H73.7599C73.7599 116.035 73.7599 120.142 73.7599 123.191C73.7149 126.542 69.7009 132.599 64.7543 132.8C48.1131 132.8 31.4655 132.8 14.8243 132.8C11.1513 132.8 5.83792 128.833 5.96014 124.692L6.0309 112.986Z" fill="#003EDE"/>
<path d="M39.3133 129.952C42.8162 129.952 45.6558 126.994 45.6558 123.345C45.6558 119.697 42.8162 116.739 39.3133 116.739C35.8104 116.739 32.9707 119.697 32.9707 123.345C32.9707 126.994 35.8104 129.952 39.3133 129.952Z" fill="#003EDE"/>
</svg>
