<svg width="232" height="129" viewBox="0 0 232 129" fill="none" xmlns="http://www.w3.org/2000/svg">
<path fill-rule="evenodd" clip-rule="evenodd" d="M0.102863 74.7226C-0.155522 82.9172 0.156693 95.6493 0.137314 104.556L0.174995 110.64C0.340792 111.084 14.6402 119.507 14.8997 119.664L29.6158 128.543L59.2385 110.567L59.2159 74.8369C56.9949 73.3286 30.0486 57.0706 29.7934 57.0448C28.7071 56.9349 3.83975 72.7768 0.102863 74.7226ZM32.7121 94.5435C32.641 102.033 32.4936 112.137 32.683 119.454C34.2086 118.744 36.238 117.396 37.7883 116.435C42.3682 113.594 48.7341 109.572 53.2688 107.033L53.2408 82.1602C52.5291 82.3104 34.6026 93.2773 32.7121 94.5446V94.5435ZM9.31966 76.5382C9.73308 76.9935 9.93656 77.0676 10.4953 77.4062L29.647 88.9787C30.0615 89.0068 42.8634 81.134 45.0134 79.8129C45.9037 79.2656 46.6767 78.7969 47.5994 78.2429C48.2475 77.8537 49.6395 77.1887 50.0486 76.5393C49.1551 75.7465 30.0152 64.2749 29.7848 64.2457C28.9365 64.137 13.3785 74.0295 10.6256 75.5962C9.99039 75.9573 9.76538 75.9865 9.31859 76.5393L9.31966 76.5382ZM6.17598 107.208L21.3076 116.354C22.6405 117.14 25.4999 119.102 26.6519 119.417L26.7057 94.4067L11.4212 85.1769C10.2983 84.4917 7.20414 82.4058 6.13507 82.0895L6.17598 107.208Z" fill="#003EDE"/>
<path fill-rule="evenodd" clip-rule="evenodd" d="M30.9906 18.2607L31.0175 54.0526C31.7119 54.8298 36.9615 57.7938 38.2545 58.5856L60.3862 71.9188C61.0085 71.9648 85.0716 56.9942 88.7924 54.8017C90.5742 53.752 90.1048 53.9304 90.0951 48.7447L90.0445 18.2641C87.8245 16.7154 60.6973 0.429304 60.5617 0.416967C59.905 0.357529 40.5681 12.4022 38.3557 13.6941C36.603 14.718 32.1232 17.192 30.9906 18.2619V18.2607ZM36.9981 50.5368C38.304 51.6504 57.2533 62.7855 57.516 62.8169L57.5558 37.9852L47.2882 31.6825C45.7821 30.7551 37.9024 25.8049 37.0121 25.5167L36.9981 50.5379V50.5368ZM63.5148 38.0649L63.4664 62.8079C64.3739 62.6139 77.1026 54.6997 79.6606 53.1341C85.26 49.7091 84.0123 52.3166 84.0952 42.6921L84.0769 25.5873C83.6871 25.6771 65.2675 36.515 63.5148 38.0649ZM40.0933 19.7602C40.5541 20.6585 48.7567 25.3765 50.1617 26.2243C51.5451 27.0587 59.9233 32.3094 60.4185 32.3554C60.8373 32.3947 80.0557 20.8446 80.8589 20.054C80.3313 19.3329 71.4408 14.1449 70.7603 13.7356C69.4566 12.9506 60.9525 7.67178 60.5531 7.62805C59.667 7.5316 43.013 18.3953 40.0933 19.7602Z" fill="#003EDE"/>
<path fill-rule="evenodd" clip-rule="evenodd" d="M61.6846 74.7954L61.7438 110.858C63.9422 112.386 66.6822 113.843 69.0798 115.312L87.4595 126.437C92.0373 129.15 90.192 129.335 94.8569 126.445C96.1316 125.655 97.1834 125.011 98.5216 124.203C101.001 122.707 103.357 121.258 105.994 119.657C110.767 116.758 115.847 113.551 120.772 110.671C120.886 99.202 120.618 87.3637 120.751 75.9583C120.769 74.4881 120.049 74.4511 117.776 73.1064L91.6648 57.2241C90.6388 56.8462 88.6395 58.4634 87.7804 58.9994L76.63 65.7619C72.1309 68.468 65.9339 72.428 61.6846 74.7965V74.7954ZM94.2378 94.6163L94.1549 119.518C95.4103 119.127 112.848 108.224 114.793 107.112L114.769 82.2711C113.844 82.4394 96.3986 93.2829 94.2389 94.6163H94.2378ZM70.7776 76.6312C71.5075 77.4252 91.022 89.0504 91.176 89.0572C91.7627 89.0818 107.038 79.5538 110.354 77.58L111.583 76.6312L101.437 70.4003C100.075 69.576 91.7832 64.3231 91.1566 64.3275C90.7906 64.3298 71.4117 75.9527 70.7765 76.6312H70.7776ZM67.7103 107.332L77.8003 113.408C79.4582 114.417 81.0968 115.386 82.8345 116.459C83.8056 117.059 86.9848 119.167 88.1604 119.514L88.2185 94.5008L72.9469 85.28C71.5333 84.3907 68.8903 82.6199 67.6856 82.2005L67.7092 107.332H67.7103Z" fill="#003EDE"/>
<path fill-rule="evenodd" clip-rule="evenodd" d="M172.309 74.7954L172.368 110.858C174.566 112.386 177.306 113.843 179.704 115.312L198.084 126.437C202.661 129.15 200.816 129.335 205.481 126.445C206.756 125.655 207.808 125.011 209.146 124.203C211.625 122.707 213.981 121.258 216.619 119.657C221.391 116.758 226.472 113.551 231.396 110.671C231.51 99.202 231.242 87.3637 231.376 75.9583C231.393 74.4881 230.674 74.4511 228.4 73.1064L202.289 57.2241C201.263 56.8462 199.264 58.4634 198.405 58.9994L187.254 65.7619C182.755 68.468 176.558 72.428 172.309 74.7965V74.7954ZM204.862 94.6163L204.779 119.518C206.034 119.127 223.472 108.224 225.418 107.112L225.393 82.2711C224.468 82.4394 207.023 93.2829 204.863 94.6163H204.862ZM178.335 107.332L188.424 113.408C190.082 114.417 191.721 115.386 193.459 116.459C194.43 117.059 197.609 119.167 198.785 119.514L198.843 94.5008L183.571 85.28C182.158 84.3907 179.515 82.6199 178.31 82.2005L178.333 107.332H178.335Z" fill="#003EDE"/>
<path d="M161.696 83.6384H136.037C134.82 83.6384 133.833 84.6662 133.833 85.9341V87.5591C133.833 88.827 134.82 89.8548 136.037 89.8548H161.696C162.913 89.8548 163.899 88.827 163.899 87.5591V85.9341C163.899 84.6662 162.913 83.6384 161.696 83.6384Z" fill="#003EDE"/>
<path d="M151.849 100.11L151.849 73.3823C151.849 72.1145 150.862 71.0867 149.645 71.0867L148.085 71.0867C146.868 71.0867 145.881 72.1145 145.881 73.3823L145.881 100.11C145.881 101.378 146.868 102.406 148.085 102.406L149.645 102.406C150.862 102.406 151.849 101.378 151.849 100.11Z" fill="#003EDE"/>
</svg>
