<svg width="137" height="149" viewBox="0 0 137 149" fill="none" xmlns="http://www.w3.org/2000/svg">
<path fill-rule="evenodd" clip-rule="evenodd" d="M30.6837 9.97952H5.307C1.85839 9.97952 0.0359592 9.44009 0.0527816 13.5063C0.206988 48.8974 0.0555854 84.614 0.0555854 120.029C0.0555854 122.321 -0.115443 145.373 0.142501 146.499C0.708858 148.973 4.43784 148.296 6.98925 148.296L96.1904 148.299C97.7773 148.302 98.5848 147.926 99.0418 146.806C99.4624 145.769 99.2521 139.709 99.2521 138.085C102.387 138.096 103.245 138.741 107.649 138.225C114.774 137.39 121.155 134.268 126.039 129.68C140.714 115.901 140.588 91.2982 126.056 78.0939C123.084 75.3939 119.602 72.858 114.922 71.1957C112.696 70.4071 110.285 69.7621 107.745 69.4719C102.981 68.9296 101.389 69.6918 99.2493 69.5657C99.2493 54.2859 99.2493 39.0031 99.2493 23.7232C99.2493 20.2169 99.482 15.7725 99.2409 12.3835C99.1035 10.4632 97.9736 9.96193 96.0334 9.97073L68.5735 9.97366C68.3688 7.37327 69.8296 0.307941 63.8128 0.0880652C59.1922 -0.0819717 54.2576 0.0851336 49.6006 0.0851336C44.9744 0.0851336 39.9697 -0.108357 35.3912 0.0880652C33.3164 0.176015 31.8332 1.47768 31.1603 3.00801C30.3192 4.92239 30.9304 7.73973 30.6837 9.97366V9.97952ZM110.417 104.312L130.217 114.81C131.052 113.553 132.022 108.701 132.196 106.757C132.505 103.271 132.227 100.715 131.697 97.44L110.419 104.312H110.417ZM35.4417 19.8153C36.5183 20.0674 62.809 19.9296 63.8015 19.8739C64.1071 18.4491 64.0006 6.95697 63.8548 4.98982C61.5165 4.80219 36.1594 4.82858 35.4529 5.0807L35.4389 19.8123L35.4417 19.8153ZM92.8091 76.5812C93.0586 77.4402 93.8717 78.7829 94.3203 79.6595L105.095 100.803C105.973 100.724 129.106 93.022 130.217 92.679C129.384 89.3926 125.212 83.7316 122.882 81.7292C122.226 81.1663 121.556 80.5712 120.861 80.0113C119.618 79.0116 117.841 77.9005 116.38 77.1793C110.818 74.4352 104.646 73.415 98.254 74.8046C96.1231 75.2678 94.7072 75.8981 92.8063 76.5783L92.8091 76.5812ZM75.6053 103.74C75.6053 118.129 85.0035 128.818 95.6885 132.201C105.443 135.288 115.433 132.579 122.733 126.068C123.973 124.963 127.472 121.043 128.086 119.231L108.687 109.032C107.562 108.478 102.844 106.124 102.275 105.523C101.756 104.972 99.311 100.017 98.8007 98.9205L88.5446 79.0116C85.3455 80.7559 81.381 85.4055 79.5614 88.7535C77.3324 92.8578 75.5997 97.9355 75.5997 103.74H75.6053ZM94.4829 143.209L94.525 136.959C92.8399 136.2 92.1642 136.255 89.5652 134.939C88.0035 134.15 86.5231 133.25 85.2165 132.303C76.6904 126.124 70.909 115.816 70.9231 103.74C70.9343 94.8338 74.153 87.531 78.1006 82.2775C81.8128 77.3346 87.4231 73.1218 93.311 71.1693C94.511 70.7706 94.4297 70.9641 94.5306 70.5244V14.9253L68.5455 14.9106C68.5034 18.0211 69.5857 24.6027 63.8043 24.7903C59.1641 24.9428 54.2716 24.7933 49.6006 24.7933C44.9744 24.7933 39.9753 24.9838 35.3996 24.7874C29.7725 24.547 30.7342 18.1794 30.7342 14.9106L4.79952 14.8637C4.7799 14.9047 4.71821 14.9839 4.67616 15.2653L4.65653 111.245C4.65653 114.916 4.39018 142.312 4.78831 143.412C6.44812 143.602 47.9772 143.45 49.6006 143.45L93.9025 143.461C94.8054 143.347 94.1997 143.567 94.4829 143.209Z" fill="#003EDE"/>
<path fill-rule="evenodd" clip-rule="evenodd" d="M27.8698 24.5037C21.533 25.396 17.9626 27.8225 14.8177 31.4285C11.8986 34.7748 9.4079 40.6698 10.0445 47.0844C11.1065 57.7712 20.0749 66.5083 31.6103 65.457C41.67 64.5402 50.5827 54.871 49.3828 43.0107C48.2064 31.3888 37.9178 23.0857 27.8669 24.5037H27.8698ZM38.8038 40.9235L39.2468 42.4118L44.2605 42.4087C44.2136 40.789 43.3334 38.9615 42.8288 37.7116C42.3242 37.9408 39.1412 40.5018 38.8038 40.9266V40.9235ZM32.1501 34.9979C32.8659 35.2913 33.2855 35.3952 34.0042 35.7711C34.5851 36.0767 35.2745 36.6237 35.7586 36.7796C36.3541 36.4312 39.2966 34.0231 39.593 33.5983C38.7774 32.4492 34.3504 29.6866 32.1501 29.8364L32.153 34.9949L32.1501 34.9979ZM19.3004 34.13C20.4739 34.8696 22.1637 36.1775 23.2932 37.0454C23.8389 36.7949 24.3787 36.3151 25.0564 35.9361C25.8661 35.4838 26.3619 35.2821 27.2244 35.0346L27.2273 29.8272C24.763 29.8516 20.025 32.7701 19.3004 34.13ZM29.058 39.8875C22.3339 41.0855 24.0765 51.0113 30.4749 50.067C32.8865 49.7095 35.0486 47.2341 34.5704 44.1659C34.1744 41.6203 31.7012 39.4199 29.058 39.8906V39.8875ZM44.2869 47.5489L39.2732 47.555C38.5221 49.0952 38.5221 49.7889 37.5746 51.1427C32.3613 58.581 20.6 55.2805 19.8402 45.9139C19.6319 43.3591 20.3272 42.4301 20.4064 41.2597C19.5674 40.5446 17.1999 38.7079 16.4166 38.3198C15.4162 39.6155 14.8676 42.9496 14.8646 44.9207C14.8588 47.5122 15.4132 49.5811 16.355 51.647C18.0213 55.2989 21.1633 58.199 24.9361 59.5223C34.5 62.8777 43.1193 55.7267 44.284 47.5489H44.2869Z" fill="#003EDE"/>
<path fill-rule="evenodd" clip-rule="evenodd" d="M56.4501 83.6858C53.7951 84.3857 54.4141 86.971 54.4141 90.0362V131.821C54.4141 134.541 53.9506 137.453 56.8462 137.655C58.005 137.737 64.0895 137.783 64.9432 137.566C67.3313 136.961 66.7739 133.963 66.7739 131.155V89.37C66.7739 86.6685 67.2139 83.8142 64.3535 83.6094C63.2593 83.53 57.1747 83.4964 56.4501 83.6858Z" fill="#003EDE"/>
<path fill-rule="evenodd" clip-rule="evenodd" d="M41.3122 96.6158C39.373 97.285 39.5842 99.2867 39.5842 101.524C39.5842 105.182 39.4434 133.734 39.6047 135.305C39.8365 137.563 41.4676 137.664 43.7471 137.664C53.0617 137.655 51.941 139.274 51.941 125.828L51.9234 98.8589C51.7034 96.6066 49.952 96.4813 47.7399 96.4844C46.5048 96.4844 42.1365 96.3316 41.3092 96.6158H41.3122Z" fill="#003EDE"/>
<path fill-rule="evenodd" clip-rule="evenodd" d="M26.6406 109.442C25.1737 109.864 24.7513 110.881 24.7542 112.669L24.7572 133.318C24.7542 135.192 24.7073 136.478 25.8896 137.273C26.7316 137.841 34.1333 137.908 35.3567 137.548C36.6915 137.154 37.1287 135.983 37.1257 134.324L37.1228 113.674C37.1257 108.785 35.7439 109.347 31.4431 109.347C30.4163 109.347 27.4034 109.225 26.6406 109.442Z" fill="#003EDE"/>
<path fill-rule="evenodd" clip-rule="evenodd" d="M11.6581 119.802C9.41383 120.581 9.92429 123.01 9.92429 125.66C9.92429 128.267 9.92723 130.876 9.92429 133.483C9.92136 136.405 10.2587 137.673 13.2247 137.664C23.8595 137.627 22.2577 139.717 22.2811 123.829C22.2841 120.908 21.9467 119.64 18.9807 119.649C17.5256 119.655 12.6556 119.456 11.6581 119.802Z" fill="#003EDE"/>
<path fill-rule="evenodd" clip-rule="evenodd" d="M59.3692 52.0778L59.4396 52.689L91.4318 52.686L91.4817 47.6436L90.8979 47.5366L59.3311 47.555L59.3692 52.0778Z" fill="#003EDE"/>
<path fill-rule="evenodd" clip-rule="evenodd" d="M59.3633 32.107H91.4787L91.4728 27.0279L59.4308 26.9607L59.3633 32.107Z" fill="#003EDE"/>
<path fill-rule="evenodd" clip-rule="evenodd" d="M59.3751 42.3964L91.4524 42.3934L91.4758 37.3326L59.4103 37.2501L59.3751 42.3964Z" fill="#003EDE"/>
<path fill-rule="evenodd" clip-rule="evenodd" d="M9.93012 75.8138L29.6447 75.8627L29.7005 70.7592L9.92426 70.7256L9.93012 75.8138Z" fill="#003EDE"/>
<path fill-rule="evenodd" clip-rule="evenodd" d="M9.92133 83.5148L29.6946 83.5882L29.6858 78.4663L9.9624 78.448L9.92133 83.5148Z" fill="#003EDE"/>
<path fill-rule="evenodd" clip-rule="evenodd" d="M59.3545 62.9173H76.6312L76.5872 57.9452H59.4044L59.3545 62.9173Z" fill="#003EDE"/>
<path fill-rule="evenodd" clip-rule="evenodd" d="M9.93306 91.2739L19.7199 91.3106L19.8226 90.7024L19.805 86.1765L9.92426 86.1826L9.93306 91.2739Z" fill="#003EDE"/>
</svg>
