<svg width="97" height="73" viewBox="0 0 97 73" fill="none" xmlns="http://www.w3.org/2000/svg">
<g clip-path="url(#clip0_40_19)">
<path fill-rule="evenodd" clip-rule="evenodd" d="M11.0634 36.4593L0.965698 36.4591C1.09276 45.2403 6.10947 50.2742 13.4095 52.3181C19.7128 54.0831 28.1656 53.9228 34.2369 50.8987C35.073 50.4824 35.8875 49.8316 36.6257 49.5453L36.6382 52.1181L46.5288 52.1494C46.5605 48.7927 46.5471 45.4111 46.5316 42.0557C46.5206 39.7173 46.3097 40.5307 48.1158 38.6315C48.7379 37.9775 50.0271 36.4031 50.7094 36.0916C51.545 37.6301 59.3159 52.0018 59.7812 52.1471L71.3645 52.1463L57.9253 29.0588C60.2506 26.0589 65.3239 21.0961 67.6891 18.1822C68.3358 17.3854 70.6425 15.1226 70.9874 14.4916L58.8813 14.4675L46.5704 28.5903L46.5321 1.34028L36.6859 1.34308L36.6303 5.52462C35.8842 5.06778 35.2206 4.2302 34.2184 3.54914C33.3152 2.93553 32.4265 2.39012 31.2985 1.90783C24.5346 -0.983103 14.0878 -0.553243 8.63091 2.95156C5.13616 5.19605 2.39668 8.42752 1.76874 14.1343C1.09327 20.2748 3.77684 24.6416 7.20043 26.9141C10.7854 29.2937 16.306 30.0852 20.9169 31.2684C25.3931 32.4173 32.3518 33.1966 32.4443 38.0139C32.6006 46.1578 18.2422 45.8705 14.0306 42.5571C12.2014 41.1181 11.3671 39.4938 11.0639 36.4588L11.0634 36.4593ZM36.6407 25.8001L36.6344 16.4552L30.8426 16.4345C30.3953 15.3076 30.5216 14.33 29.8893 13.1527C26.8642 7.51995 17.6079 8.13382 14.0964 10.3544C12.3564 11.4546 11.0901 13.6182 11.7323 16.2215C12.3079 18.5556 14.1193 19.44 16.5271 20.0315C20.3266 20.9647 30.4382 23.2558 33.531 24.4372C34.6268 24.8556 35.6471 25.4705 36.6402 25.7999L36.6407 25.8001Z" fill="white"/>
<path fill-rule="evenodd" clip-rule="evenodd" d="M66.1498 60.4641C62.6599 61.0423 60.6958 63.5199 61.1242 67.5913C61.4973 71.1393 64.203 73.3253 68.1905 72.7952C75.7446 71.7911 74.6313 59.0592 66.1501 60.4641H66.1498ZM66.5074 63.1056C64.6896 63.4952 64.1059 65.1638 64.3379 67.352C64.5432 69.287 65.7524 70.6319 67.9775 70.1116C71.0461 69.3944 70.7533 62.195 66.5074 63.1056Z" fill="white"/>
<path fill-rule="evenodd" clip-rule="evenodd" d="M90.2311 60.3997C86.5735 60.8596 84.5773 63.2672 84.8528 67.3561C85.0911 70.8914 87.8385 73.195 91.7066 72.8219C99.3687 72.0828 98.5708 59.3516 90.2308 60.3997H90.2311ZM90.4913 63.0758C88.4949 63.3242 87.8883 65.0594 88.0609 67.1403C88.2278 69.1496 89.2733 70.4814 91.5134 70.1592C94.6336 69.7105 94.8249 62.5365 90.4911 63.0758H90.4913Z" fill="white"/>
<path fill-rule="evenodd" clip-rule="evenodd" d="M30.5388 60.4619C22.7849 61.6845 23.9572 73.9248 32.5896 72.7843C39.989 71.8065 39.0409 59.1214 30.5388 60.4619ZM28.669 66.6474C28.6741 68.6949 29.5175 70.2148 31.5449 70.1975C33.6343 70.18 34.3274 68.7471 34.3324 66.6479C34.3373 64.6116 33.6377 63.0408 31.5444 63.0296C29.4433 63.0184 28.6639 64.5355 28.669 66.6472V66.6474Z" fill="white"/>
<path fill-rule="evenodd" clip-rule="evenodd" d="M74.1881 72.5575L79.5992 72.5817C81.7789 72.5817 83.5766 72.2664 84.2579 70.6156C85.4383 67.7565 82.8825 66.7331 82.3445 66.2964C82.8963 65.8368 85.1044 64.7325 83.819 62.4251C82.5453 60.1389 77.2541 60.6245 74.1886 60.6726L74.1884 72.5575H74.1881ZM77.278 65.4779C78.6371 65.4731 81.0053 65.8294 81.0599 64.1891C81.1174 62.463 78.8333 62.7827 77.3515 62.84L77.278 65.4779ZM77.2829 70.4222C78.8676 70.4344 81.42 70.8704 81.4205 68.9303C81.4208 66.9777 78.8722 67.3147 77.3205 67.3719L77.2831 70.4219L77.2829 70.4222Z" fill="white"/>
<path fill-rule="evenodd" clip-rule="evenodd" d="M14.179 67.043L10.9325 67.0534C10.1302 69.4694 8.47334 70.7453 6.16029 69.9446C2.41319 68.6474 2.309 60.7147 6.04923 59.1968C8.2426 58.3065 9.78641 59.3106 10.6888 61.1817C11.0855 62.0045 10.5389 61.7902 14.2418 61.7869C13.2883 53.9453 -0.0589457 53.3116 1.16302e-05 64.7196C0.0223747 69.0513 1.99389 72.254 6.00069 72.8936C8.18821 73.2427 10.2538 72.7131 11.6359 71.6526C12.6763 70.8542 14.0997 69.1078 14.179 67.0432V67.043Z" fill="white"/>
<path fill-rule="evenodd" clip-rule="evenodd" d="M39.6953 62.0807C39.6958 63.6194 39.8472 68.1771 39.4007 69.4227C39.0668 70.3547 38.4274 70.3137 37.3619 70.2821L37.3631 72.5931C44.1099 73.8809 42.3898 68.0476 42.864 63.2277L46.0367 63.2066L46.1285 72.5574L49.2339 72.5757C49.4321 70.1472 49.3378 63.7851 49.2832 60.6572L39.6922 60.6598L39.6953 62.0809V62.0807Z" fill="white"/>
<path fill-rule="evenodd" clip-rule="evenodd" d="M15.2031 72.5804L18.3078 72.5662L18.3383 68.6849L19.5949 67.6056L22.4551 72.5756L26.1255 72.5812C25.8121 71.6802 24.6088 69.8455 24.0348 68.8972C23.3161 67.7097 22.5835 66.4613 21.9669 65.2756C22.0968 65.0226 23.7352 63.1983 23.9931 62.9461C24.6747 62.2798 25.5888 61.0541 26.0233 60.7456C25.1941 60.5502 23.9918 60.6207 23.112 60.6377C21.8567 60.6619 21.7792 61.1579 21.2643 61.8011L18.7106 64.7177C18.4199 64.9722 18.7436 64.7493 18.3329 64.9829L18.3317 60.7146L15.2036 60.6476L15.2031 72.5804Z" fill="white"/>
<path fill-rule="evenodd" clip-rule="evenodd" d="M50.8585 72.5745L53.9174 72.5689C54.2882 68.689 53.0842 69.5706 55.2209 67.6002C55.6112 68.0148 57.7802 71.9502 58.0579 72.5755L61.7443 72.5789C61.4409 71.459 57.9743 66.4763 57.6185 65.2422L61.6409 60.7341L57.786 60.644L54.0252 65.0126L53.9482 60.71L50.8601 60.6652L50.8583 72.5745H50.8585Z" fill="white"/>
</g>
<defs>
<clipPath id="clip0_40_19">
<rect width="97" height="73" fill="white"/>
</clipPath>
</defs>
</svg>
